<svg width="25" height="25" viewBox="0 0 25 25" fill="none" xmlns="http://www.w3.org/2000/svg">
<path d="M21.7083 4.80203C21.1763 4.26974 20.5446 3.8475 19.8493 3.55941C19.154 3.27133 18.4088 3.12305 17.6562 3.12305C16.9036 3.12305 16.1584 3.27133 15.4632 3.55941C14.7679 3.8475 14.1362 4.26974 13.6041 4.80203L12.5 5.9062L11.3958 4.80203C10.3211 3.72735 8.86356 3.1236 7.34373 3.1236C5.82391 3.1236 4.36633 3.72735 3.29165 4.80203C2.21697 5.87671 1.61322 7.33429 1.61322 8.85412C1.61322 10.3739 2.21697 11.8315 3.29165 12.9062L4.39581 14.0104L12.5 22.1145L20.6041 14.0104L21.7083 12.9062C22.2406 12.3742 22.6628 11.7425 22.9509 11.0472C23.239 10.3519 23.3873 9.60671 23.3873 8.85412C23.3873 8.10152 23.239 7.35631 22.9509 6.66104C22.6628 5.96577 22.2406 5.33407 21.7083 4.80203Z" stroke="white" stroke-width="1.8" stroke-linecap="round" stroke-linejoin="round"/>
</svg>
