<svg width="114" height="36" viewBox="0 0 114 36" fill="none" xmlns="http://www.w3.org/2000/svg">
<path d="M6.63574 29H2.3584V9.00488H7.32422L12.4658 20.2695H12.627L17.7686 9.00488H22.7051V29H18.3691V16.6221H18.1348L13.9307 25.9531H11.1035L6.85547 16.6221H6.63574V29ZM31.8457 29L25.4736 9.00488H31.0693L34.8926 23.8438H35.1123L38.877 9.00488H44.1797L37.8809 29H31.8457ZM55.8691 29H51.0645V13.0039H45.6152V9.00488H61.3184V13.0039H55.8691V29ZM69.0234 29H64.2041V9.00488H69.0234V29ZM77.9736 29H73.6963V9.00488H78.6621L83.8037 20.2695H83.9648L89.1064 9.00488H94.043V29H89.707V16.6221H89.4727L85.2686 25.9531H82.4414L78.1934 16.6221H77.9736V29ZM112.134 25.1328V29H98.7158V9.00488H112.134V12.8721H103.477V17.1641H111.592V20.7236H103.477V25.1328H112.134Z" fill="white"/>
</svg>
